<svg xmlns="http://www.w3.org/2000/svg" xmlns:xlink="http://www.w3.org/1999/xlink" id="Layer_1" x="0" y="0" version="1.1" viewBox="0 0 100 100" xml:space="preserve" style="enable-background:new 0 0 100 100"><style type="text/css">.st0{fill:#f8dc24}.st1{fill:none;stroke:#46a7dd;stroke-width:3.4399;stroke-linecap:round;stroke-linejoin:round}.st2{opacity:.7;fill:#f1bc1b;enable-background:new}.st3{fill:#46a7dd}.st4{opacity:.4;fill:#386cb5;enable-background:new}.st5{fill:none;stroke:#3a3d54;stroke-width:3.4399;stroke-linecap:round;stroke-miterlimit:10}.st6{fill:#3a3d54}.st7{fill:none;stroke:#f1bc1b;stroke-width:3.4399;stroke-linecap:round;stroke-linejoin:round}</style><g id="XMLID_165_"><circle id="XMLID_177_" cx="49.9" cy="49.9" r="49.9" class="st0"/><line id="XMLID_176_" x1="67.9" x2="87.7" y1="39.6" y2="39.6" class="st1"/><line id="XMLID_175_" x1="12" x2="31.8" y1="39.6" y2="39.6" class="st1"/><path id="XMLID_174_" d="M40.4,86.9c-11.1,0-22-3-31.6-8.7c15.7,22.7,46.7,28.4,69.4,12.7c15.2-10.5,23.4-28.6,21.2-47 C91.2,69.5,67.3,86.9,40.4,86.9z" class="st2"/><path id="XMLID_173_" d="M68.8,96c7.3-3,13.8-7.7,18.9-13.7V37H68.8V96z" class="st3"/><path id="XMLID_172_" d="M87.7,82.4V64.9C82.5,71.1,76,76.2,68.8,80V96c2.7-1.1,5.3-2.5,7.8-4l0.2-0.1 c0.8-0.5,1.6-1,2.4-1.6l0,0C82.3,88,85.2,85.3,87.7,82.4z" class="st4"/><path id="XMLID_171_" d="M62.8,30.1L62.8,30.1c0,3.8,3.1,6.9,6.9,6.9h18.1" class="st5"/><path id="XMLID_170_" d="M12,82.4C17.2,88.3,23.7,93,31,96V37H12V82.4z" class="st3"/><path id="XMLID_169_" d="M31,86.1C24.4,85.1,18,83,12,80v2.4l0,0c0.6,0.7,1.3,1.4,1.9,2.1l0,0c0.7,0.7,1.4,1.4,2.1,2 l0,0c0.7,0.7,1.4,1.3,2.2,1.9l0,0c0.8,0.7,1.6,1.3,2.4,1.9l0,0c3.2,2.3,6.7,4.2,10.3,5.7V86.1z" class="st4"/><path id="XMLID_168_" d="M37,30.1L37,30.1c0,3.8-3.1,6.9-6.9,6.9H12" class="st5"/><path id="XMLID_167_" d="M36.9,56.8c-0.9,0-1.6-0.7-1.6-1.6c0-0.1,0-0.2,0-0.2c1-8.1,8.3-13.8,16.4-12.9 c6.8,0.8,12.1,6.1,12.9,12.9c0.1,0.9-0.5,1.7-1.4,1.8c-0.1,0-0.2,0-0.2,0H36.9z" class="st6"/><line id="XMLID_166_" x1="44.7" x2="55" y1="61.9" y2="61.9" class="st7"/></g></svg>